--40000LOG 07:26:00:443000300 Waiting for file /home/seluser/videos/vid_chrome_or_firefox_40000* to be created...
Won't start video recording due to VIDEO env var false
ffmpeg version 2.8.17-0ubuntu0.1 Copyright (c) 2000-2020 the FFmpeg developers
  built with gcc 5.4.0 (Ubuntu 5.4.0-6ubuntu1~16.04.12) 20160609
  configuration: --prefix=/usr --extra-version=0ubuntu0.1 --build-suffix=-ffmpeg --toolchain=hardened --libdir=/usr/lib/x86_64-linux-gnu --incdir=/usr/include/x86_64-linux-gnu --cc=cc --cxx=g++ --enable-gpl --enable-shared --disable-stripping --disable-decoder=libopenjpeg --disable-decoder=libschroedinger --enable-avresample --enable-avisynth --enable-gnutls --enable-ladspa --enable-libass --enable-libbluray --enable-libbs2b --enable-libcaca --enable-libcdio --enable-libflite --enable-libfontconfig --enable-libfreetype --enable-libfribidi --enable-libgme --enable-libgsm --enable-libmodplug --enable-libmp3lame --enable-libopenjpeg --enable-libopus --enable-libpulse --enable-librtmp --enable-libschroedinger --enable-libshine --enable-libsnappy --enable-libsoxr --enable-libspeex --enable-libssh --enable-libtheora --enable-libtwolame --enable-libvorbis --enable-libvpx --enable-libwavpack --enable-libwebp --enable-libx265 --enable-libxvid --enable-libzvbi --enable-openal --enable-opengl --enable-x11grab --enable-libdc1394 --enable-libiec61883 --enable-libzmq --enable-frei0r --enable-libx264 --enable-libopencv
  libavutil      54. 31.100 / 54. 31.100
  libavcodec     56. 60.100 / 56. 60.100
  libavformat    56. 40.101 / 56. 40.101
  libavdevice    56.  4.100 / 56.  4.100
  libavfilter     5. 40.101 /  5. 40.101
  libavresample   2.  1.  0 /  2.  1.  0
  libswscale      3.  1.101 /  3.  1.101
  libswresample   1.  2.101 /  1.  2.101
  libpostproc    53.  3.100 / 53.  3.100
Input #0, x11grab, from ':62.0':
  Duration: N/A, start: 1604467560.810060, bitrate: N/A
    Stream #0:0: Video: rawvideo (BGR[0] / 0x524742), bgr0, 1366x768, 10 fps, 10 tbr, 1000k tbn, 10 tbc
[libx264 @ 0x1297320] using cpu capabilities: MMX2 SSE2Fast SSSE3 SSE4.2 AVX FMA3 AVX2 LZCNT BMI2
[libx264 @ 0x1297320] profile Constrained Baseline, level 3.2
[libx264 @ 0x1297320] 264 - core 148 r2643 5c65704 - H.264/MPEG-4 AVC codec - Copyleft 2003-2015 - http://www.videolan.org/x264.html - options: cabac=0 ref=1 deblock=0:0:0 analyse=0:0 me=dia subme=0 psy=1 psy_rd=1.00:0.00 mixed_ref=0 me_range=16 chroma_me=1 trellis=0 8x8dct=0 cqm=0 deadzone=21,11 fast_pskip=1 chroma_qp_offset=0 threads=3 lookahead_threads=1 sliced_threads=0 nr=0 decimate=1 interlaced=0 bluray_compat=0 constrained_intra=0 bframes=0 weightp=0 keyint=250 keyint_min=10 scenecut=0 intra_refresh=0 rc=crf mbtree=0 crf=23.0 qcomp=0.60 qpmin=0 qpmax=69 qpstep=4 ip_ratio=1.40 aq=0
Output #0, matroska, to '/home/seluser/videos/vid_chrome_or_firefox_40000.mkv':
  Metadata:
    encoder         : Lavf56.40.101
    Stream #0:0: Video: h264 (libx264) (H264 / 0x34363248), yuv420p, 1366x768, q=-1--1, 10 fps, 1k tbn, 10 tbc
    Metadata:
      encoder         : Lavc56.60.100 libx264
Stream mapping:
  Stream #0:0 -> #0:0 (rawvideo (native) -> h264 (libx264))
Press [q] to stop, [?] for help
[swscaler @ 0x12a2ca0] Warning: data is not aligned! This can lead to a speedloss
frame=    8 fps=0.0 q=10.0 size=      25kB time=00:00:00.40 bitrate= 519.6kbits/s    
frame=   14 fps= 12 q=9.0 size=      28kB time=00:00:01.00 bitrate= 231.8kbits/s    
frame=   19 fps= 11 q=9.0 size=      29kB time=00:00:01.50 bitrate= 158.3kbits/s    
frame=   25 fps= 11 q=11.0 size=      51kB time=00:00:02.10 bitrate= 199.9kbits/s    
frame=   31 fps= 11 q=9.0 size=      55kB time=00:00:02.70 bitrate= 167.0kbits/s    
frame=   37 fps= 11 q=9.0 size=      56kB time=00:00:03.30 bitrate= 139.4kbits/s    
frame=   42 fps= 11 q=16.0 size=      57kB time=00:00:03.80 bitrate= 123.9kbits/s    
frame=   47 fps= 10 q=13.0 size=      90kB time=00:00:04.30 bitrate= 170.6kbits/s    
frame=   53 fps= 10 q=9.0 size=      97kB time=00:00:04.90 bitrate= 162.4kbits/s    
frame=   59 fps= 10 q=9.0 size=     100kB time=00:00:05.50 bitrate= 148.7kbits/s    
frame=   64 fps= 10 q=9.0 size=     101kB time=00:00:06.00 bitrate= 137.6kbits/s    
frame=   70 fps= 10 q=9.0 size=     102kB time=00:00:06.60 bitrate= 127.0kbits/s    
frame=   75 fps= 10 q=9.0 size=     103kB time=00:00:07.10 bitrate= 118.9kbits/s    
frame=   81 fps= 10 q=10.0 size=     123kB time=00:00:07.70 bitrate= 131.0kbits/s    
frame=   86 fps= 10 q=9.0 size=     127kB time=00:00:08.20 bitrate= 127.0kbits/s    
frame=   91 fps= 10 q=9.0 size=     128kB time=00:00:08.70 bitrate= 120.7kbits/s    
frame=   96 fps= 10 q=9.0 size=     129kB time=00:00:09.20 bitrate= 115.3kbits/s    
frame=  102 fps= 10 q=18.0 size=     165kB time=00:00:09.80 bitrate= 138.2kbits/s    
frame=  108 fps= 10 q=11.0 size=     232kB time=00:00:10.40 bitrate= 182.7kbits/s    
frame=  114 fps= 10 q=10.0 size=     250kB time=00:00:11.00 bitrate= 186.3kbits/s    
frame=  119 fps= 10 q=13.0 size=     252kB time=00:00:11.50 bitrate= 179.5kbits/s    
frame=  125 fps= 10 q=11.0 size=     278kB time=00:00:12.10 bitrate= 188.3kbits/s    
frame=  130 fps= 10 q=12.0 size=     310kB time=00:00:12.60 bitrate= 201.5kbits/s    
frame=  136 fps= 10 q=9.0 size=     332kB time=00:00:13.20 bitrate= 205.8kbits/s    
frame=  142 fps= 10 q=11.0 size=     361kB time=00:00:13.80 bitrate= 214.3kbits/s    
frame=  148 fps= 10 q=9.0 size=     374kB time=00:00:14.40 bitrate= 212.8kbits/s    
frame=  154 fps= 10 q=9.0 size=     375kB time=00:00:15.00 bitrate= 205.0kbits/s    
frame=  159 fps= 10 q=9.0 size=     377kB time=00:00:15.50 bitrate= 199.3kbits/s    
frame=  165 fps= 10 q=11.0 size=     395kB time=00:00:16.10 bitrate= 201.1kbits/s    
frame=  171 fps= 10 q=12.0 size=     454kB time=00:00:16.70 bitrate= 222.9kbits/s    
frame=  177 fps= 10 q=9.0 size=     476kB time=00:00:17.30 bitrate= 225.5kbits/s    
frame=  182 fps= 10 q=9.0 size=     477kB time=00:00:17.80 bitrate= 219.4kbits/s    
frame=  188 fps= 10 q=21.0 size=     481kB time=00:00:18.40 bitrate= 214.2kbits/s    
frame=  193 fps= 10 q=11.0 size=     614kB time=00:00:18.90 bitrate= 266.0kbits/s    
frame=  199 fps= 10 q=9.0 size=     684kB time=00:00:19.50 bitrate= 287.3kbits/s    
frame=  204 fps= 10 q=9.0 size=     685kB time=00:00:20.00 bitrate= 280.4kbits/s    
frame=  210 fps= 10 q=9.0 size=     685kB time=00:00:20.60 bitrate= 272.6kbits/s    
frame=  215 fps= 10 q=9.0 size=     686kB time=00:00:21.10 bitrate= 266.3kbits/s    
frame=  220 fps= 10 q=13.0 size=     687kB time=00:00:21.60 bitrate= 260.4kbits/s    
frame=  226 fps= 10 q=10.0 size=     729kB time=00:00:22.20 bitrate= 269.1kbits/s    
frame=  231 fps= 10 q=9.0 size=     736kB time=00:00:22.70 bitrate= 265.5kbits/s    
frame=  237 fps= 10 q=9.0 size=     736kB time=00:00:23.30 bitrate= 258.8kbits/s    
frame=  242 fps= 10 q=9.0 size=     737kB time=00:00:23.80 bitrate= 253.5kbits/s    
frame=  247 fps= 10 q=9.0 size=     737kB time=00:00:24.30 bitrate= 248.5kbits/s    
frame=  253 fps= 10 q=7.0 size=     737kB time=00:00:24.90 bitrate= 242.6kbits/s    
frame=  259 fps= 10 q=10.0 size=     856kB time=00:00:25.50 bitrate= 274.9kbits/s    
frame=  265 fps= 10 q=9.0 size=     856kB time=00:00:26.10 bitrate= 268.7kbits/s    
frame=  270 fps= 10 q=9.0 size=     856kB time=00:00:26.60 bitrate= 263.7kbits/s    
frame=  275 fps= 10 q=9.0 size=     856kB time=00:00:27.10 bitrate= 258.9kbits/s    
frame=  281 fps= 10 q=9.0 size=     857kB time=00:00:27.70 bitrate= 253.3kbits/s    
frame=  287 fps= 10 q=9.0 size=     857kB time=00:00:28.30 bitrate= 248.0kbits/s    
frame=  292 fps= 10 q=9.0 size=     857kB time=00:00:28.80 bitrate= 243.8kbits/s    
frame=  297 fps= 10 q=9.0 size=     857kB time=00:00:29.30 bitrate= 239.7kbits/s    
frame=  303 fps= 10 q=9.0 size=     858kB time=00:00:29.90 bitrate= 235.0kbits/s    
frame=  308 fps= 10 q=9.0 size=     858kB time=00:00:30.40 bitrate= 231.2kbits/s    
frame=  313 fps= 10 q=9.0 size=     858kB time=00:00:30.90 bitrate= 227.5kbits/s    
frame=  319 fps= 10 q=9.0 size=     858kB time=00:00:31.50 bitrate= 223.2kbits/s    
frame=  325 fps= 10 q=9.0 size=     859kB time=00:00:32.10 bitrate= 219.1kbits/s    
frame=  330 fps= 10 q=10.0 size=     862kB time=00:00:32.60 bitrate= 216.7kbits/s    
frame=  335 fps= 10 q=12.0 size=     877kB time=00:00:33.10 bitrate= 217.0kbits/s    
frame=  341 fps= 10 q=10.0 size=     894kB time=00:00:33.70 bitrate= 217.2kbits/s    
frame=  346 fps= 10 q=17.0 size=     896kB time=00:00:34.20 bitrate= 214.6kbits/s    
frame=  352 fps= 10 q=10.0 size=     932kB time=00:00:34.80 bitrate= 219.5kbits/s    
frame=  358 fps= 10 q=9.0 size=     937kB time=00:00:35.40 bitrate= 216.8kbits/s    
frame=  363 fps= 10 q=9.0 size=     937kB time=00:00:35.90 bitrate= 213.9kbits/s    
frame=  369 fps= 10 q=10.0 size=     938kB time=00:00:36.50 bitrate= 210.4kbits/s    
frame=  374 fps= 10 q=19.0 size=     939kB time=00:00:37.00 bitrate= 207.8kbits/s    
frame=  379 fps= 10 q=18.0 size=    1024kB time=00:00:37.50 bitrate= 223.8kbits/s    
frame=  385 fps= 10 q=10.0 size=    1122kB time=00:00:38.10 bitrate= 241.3kbits/s    
frame=  391 fps= 10 q=9.0 size=    1136kB time=00:00:38.70 bitrate= 240.4kbits/s    
frame=  397 fps= 10 q=9.0 size=    1137kB time=00:00:39.30 bitrate= 236.9kbits/s    
frame=  403 fps= 10 q=9.0 size=    1137kB time=00:00:39.90 bitrate= 233.5kbits/s    
frame=  409 fps= 10 q=9.0 size=    1138kB time=00:00:40.50 bitrate= 230.1kbits/s    
frame=  414 fps= 10 q=9.0 size=    1138kB time=00:00:41.00 bitrate= 227.4kbits/s    
frame=  419 fps= 10 q=9.0 size=    1139kB time=00:00:41.50 bitrate= 224.8kbits/s    
frame=  425 fps= 10 q=9.0 size=    1139kB time=00:00:42.10 bitrate= 221.7kbits/s    
frame=  431 fps= 10 q=9.0 size=    1140kB time=00:00:42.70 bitrate= 218.7kbits/s    
frame=  437 fps= 10 q=9.0 size=    1141kB time=00:00:43.30 bitrate= 215.9kbits/s    
frame=  443 fps= 10 q=9.0 size=    1142kB time=00:00:43.90 bitrate= 213.0kbits/s    
frame=  448 fps= 10 q=9.0 size=    1142kB time=00:00:44.40 bitrate= 210.8kbits/s    
frame=  454 fps= 10 q=9.0 size=    1143kB time=00:00:45.00 bitrate= 208.0kbits/s    
frame=  459 fps= 10 q=9.0 size=    1143kB time=00:00:45.50 bitrate= 205.9kbits/s    
frame=  464 fps= 10 q=9.0 size=    1144kB time=00:00:46.00 bitrate= 203.7kbits/s    
frame=  469 fps= 10 q=9.0 size=    1144kB time=00:00:46.50 bitrate= 201.6kbits/s    
frame=  474 fps= 10 q=9.0 size=    1145kB time=00:00:47.00 bitrate= 199.5kbits/s    
frame=  480 fps= 10 q=10.0 size=    1172kB time=00:00:47.60 bitrate= 201.7kbits/s    
frame=  486 fps= 10 q=11.0 size=    1177kB time=00:00:48.20 bitrate= 200.0kbits/s    
--40000LOG 07:26:49:851213800 Trapped SIGTERM or SIGINT so shutting down ffmpeg gracefully...
--40000LOG 07:26:49:873617300 Will kill VID_TOOL_PID=638 ...
frame=  491 fps= 10 q=-1.0 Lsize=    1182kB time=00:00:49.10 bitrate= 197.1kbits/s    
video:1178kB audio:0kB subtitle:0kB other streams:0kB global headers:0kB muxing overhead: 0.341915%
[libx264 @ 0x1297320] frame I:2     Avg QP:13.50  size: 67817
[libx264 @ 0x1297320] frame P:489   Avg QP:10.11  size:  2187
[libx264 @ 0x1297320] mb I  I16..4: 100.0%  0.0%  0.0%
[libx264 @ 0x1297320] mb P  I16..4:  1.8%  0.0%  0.0%  P16..4:  2.0%  0.0%  0.0%  0.0%  0.0%    skip:96.2%
[libx264 @ 0x1297320] coded y,uvDC,uvAC intra: 14.3% 9.1% 8.3% inter: 0.8% 0.9% 0.6%
[libx264 @ 0x1297320] i16 v,h,dc,p: 74% 24%  1%  1%
[libx264 @ 0x1297320] i8c dc,h,v,p: 83% 14%  3%  1%
[libx264 @ 0x1297320] kb/s:196.38
Exiting normally, received signal 2.
--40000LOG 07:26:50:897621200 Tried to kill -SIGTERM VID_TOOL_PID=638
--40000LOG 07:26:50:903442700 Waiting up to 6s for VID_TOOL_PID=638 to end with SIGTERM...
--40000LOG 07:26:50:918254700 wait_pid successfully managed to SIGTERM:VID_TOOL_PID=638 within less than 6s
--40000LOG 07:26:50:924142400 Will try to fix the videos...
--40000LOG 07:26:51:494748100 Fixing perms for /home/seluser/videos/vid_chrome_or_firefox_40000.mkv*
--40000LOG 07:26:51:548651700 Changing video encoding from mkv to mp4...
--40000LOG 07:27:00:842420300 Conversion from mkv to mp4 succeeded!
--40000LOG 07:27:00:859246600 Cleaning up /home/seluser/videos/vid_chrome_or_firefox_40000.mkv ...
--40000LOG 07:27:00:883549700 Optimizing /home/seluser/videos/vid_chrome_or_firefox_40000.mp4 for HTTP streaming...
--40000LOG 07:27:00:996361700 Succeeded to mp4box_retry.sh within 8s
--40000LOG 07:27:01:015972400 ffmpeg shutdown complete.
